<svg xmlns="http://www.w3.org/2000/svg" version="1.1" xmlns:xlink="http://www.w3.org/1999/xlink" width="1000" height="1000"><style>
    #light-icon {
      display: inline;
    }
    #dark-icon {
      display: none;
    }

    @media (prefers-color-scheme: dark) {
      #light-icon {
        display: none;
      }
      #dark-icon {
        display: inline;
      }
    }
  </style><g id="light-icon"><svg xmlns="http://www.w3.org/2000/svg" version="1.1" xmlns:xlink="http://www.w3.org/1999/xlink" width="1000" height="1000"><g clip-path="url(#SvgjsClipPath1038)"><rect width="1000" height="1000" fill="#ffffff"></rect><g transform="matrix(0.6024096385542169,0,0,0.6024096385542169,49.99999999999994,49.99999999999994)"><svg xmlns="http://www.w3.org/2000/svg" version="1.1" xmlns:xlink="http://www.w3.org/1999/xlink" width="1494" height="1494"><svg version="1.2" xmlns="http://www.w3.org/2000/svg" viewBox="0 0 1494 1494" width="1494" height="1494">
	<style>
		.s0 { fill: #fbfcfa } 
		.s1 { fill: #06aa77 } 
		.s2 { fill: #203c8c } 
	</style>
	<g id="Background">
		<path id="Path 0" class="s0" d="m-277 747v1024h2048v-2048h-2048z"></path>
		<path id="Path 1" class="s1" d="m527.42 1053.25c-7.17 7.29-18.39 18.88-24.92 25.75-6.53 6.88-15.99 17.67-21.03 24-5.04 6.33-10.97 14.2-13.18 17.5-2.2 3.3-7.07 11.4-10.8 18-3.74 6.6-8.33 15.38-10.2 19.5-1.88 4.13-5.36 12.9-7.75 19.5-2.39 6.6-5.51 16.72-6.94 22.5-1.42 5.78-3.5 16.58-4.61 24-1.11 7.42-2.35 18.34-2.75 24.26l-0.74 10.75 117.5-0.01c0-169.72-0.34-219-0.76-219-0.42 0-6.64 5.96-13.82 13.25z"></path>
		<path id="Path 2" class="s2" d="m795.51 774.25c-0.87 1.24-7.74 8.55-15.26 16.25-7.52 7.7-19.99 20.53-27.71 28.52-7.72 7.98-19.66 20.38-26.54 27.56-6.87 7.17-16.74 17.51-21.93 22.98-5.19 5.47-14.64 15.34-21 21.94-6.36 6.6-17.19 17.87-24.07 25.05-6.87 7.18-17.42 18.21-23.43 24.5-6.02 6.3-15.69 16.41-21.5 22.47-5.82 6.06-12.59 13.17-15.07 15.8l-4.5 4.78c199.95-0.62 260.25-1.1 263-1.47 2.75-0.37 10.63-1.35 17.5-2.18 6.88-0.83 13.51-1.72 14.75-1.98l2.25-0.47v-206h-94.9z"></path>
		<path id="Path 3" class="s1" d="m1125 771.73c2.47 0.21 6.08 0.21 8 0 1.92-0.22-0.1-0.39-4.5-0.39-4.4 0.01-5.97 0.18-3.5 0.39z"></path>
		<path id="Path 4" class="s1" d="m1039 771.75c14.03 0.16 37.2 0.16 51.5 0 14.3-0.16 2.83-0.29-25.5-0.29-28.33 0-40.03 0.13-26 0.29z"></path>
		<path id="Path 5" class="s1" d="m971 771.74c4.67 0.19 12.78 0.19 18 0.01 5.22-0.19 1.4-0.34-8.5-0.34-9.9 0-14.17 0.15-9.5 0.33z"></path>
		<path id="Path 6" class="s2" d="m953.25 771.75l-6.25 0.25c0 185.79 0.1 191 1.75 191 0.96 0 6.25-1.73 11.75-3.85 5.5-2.11 12.92-5.09 16.5-6.61 3.58-1.52 9.65-4.35 13.5-6.27 3.85-1.92 11.95-6.46 18-10.07 6.05-3.62 15.95-9.93 22-14.03 6.05-4.11 15.27-10.88 20.5-15.07 5.22-4.18 14.92-13 21.55-19.6 6.63-6.6 16.46-17.17 21.85-23.5 5.39-6.33 13.29-16.45 17.56-22.5 4.26-6.05 11.05-16.63 15.08-23.5 4.03-6.87 9.92-17.9 13.09-24.5 3.17-6.6 6.46-14.03 7.31-16.5 0.86-2.47 1.44-4.61 1.31-4.74-0.14-0.13-42.78-0.36-94.75-0.5-51.97-0.14-97.31-0.15-100.75-0.01z"></path>
		<path id="Path 7" class="s1" d="m860 771.74c4.67 0.19 12.55 0.19 17.5 0 4.95-0.18 1.13-0.33-8.5-0.33-9.63 0-13.67 0.15-9 0.33z"></path>
		<path id="Path 8" class="s2" d="m952.25 610.09l0.25 106.1c166.63-0.24 215.11-0.39 215.25-0.5 0.14-0.1 1.15-4.24 2.26-9.19 1.1-4.95 3.11-16.42 4.46-25.5 1.35-9.08 3.2-25.05 4.11-35.5 1.24-14.21 1.52-25.31 1.13-44-0.29-13.75-1.26-31.75-2.16-40-0.9-8.25-2.53-20.4-3.63-27-1.1-6.6-2.67-15.38-3.5-19.5-0.82-4.13-1.7-8.29-1.96-9.25-0.43-1.65-6.45-1.75-108.46-1.75h-108.01z"></path>
		<path id="Path 9" class="s1" d="m1154.5 503.75q13 0.34 13.83 1.55 0.85 1.26 0.41-0.3c-0.33-1.24-2.77-1.51-13.82-1.55l-13.42-0.05z"></path>
		<path id="Path 10" class="s1" d="m909.37 482.71c-4.33 0.73-20.25 3.59-35.37 6.35-15.13 2.77-34.7 6.34-43.5 7.94-8.8 1.6-22.3 4.05-30 5.46-7.7 1.4-34.47 6.13-59.5 10.5-25.02 4.37-52.7 9.33-61.5 11.02-8.8 1.69-16.23 3.33-16.5 3.65-0.27 0.32 11.87 12.71 27 27.52l27.5 26.93c-22.53 22.8-40.33 41.12-54.09 55.42-13.77 14.3-28.61 29.78-32.97 34.41-4.37 4.62-10.19 10.73-12.94 13.58-2.75 2.84-8.83 9.18-13.5 14.09-4.68 4.9-19.55 20.4-33.05 34.42-13.5 14.03-28.57 29.77-33.5 34.98-4.92 5.21-15.93 16.68-24.45 25.49-8.52 8.81-21.14 21.87-28.03 29.02-6.89 7.16-17.05 17.73-22.57 23.51-5.52 5.78-16.13 16.8-23.57 24.5-7.44 7.7-18.45 19.17-24.47 25.5-6.03 6.33-13.44 14.2-16.47 17.5-3.04 3.3-8.21 9.38-11.49 13.5-3.29 4.13-8.25 10.65-11.04 14.5-2.78 3.85-7.02 9.92-9.41 13.5-2.39 3.58-6.56 10.33-9.26 15-2.71 4.67-7.75 14.35-11.2 21.5-3.46 7.15-8.54 19.08-11.28 26.5-2.75 7.42-6.45 18.9-8.21 25.5-1.77 6.6-3.85 14.92-4.63 18.5-0.77 3.58-1.86 8.75-2.42 11.5-0.56 2.75-1.75 9.5-2.65 15-1.4 8.53-1.69 21.71-1.97 89.75l-0.33 79.75 72.5-0.5c0.35-6.97 0.94-15.08 1.54-22.5 0.6-7.42 1.71-17.1 2.46-21.5 0.75-4.4 2.3-12.28 3.44-17.5 1.14-5.22 4.14-15.8 6.69-23.5 2.54-7.7 5.91-17.26 7.49-21.25 1.59-3.99 5.42-12.31 8.51-18.5 3.1-6.19 9.28-17.1 13.72-24.25 4.45-7.15 11.33-17.5 15.3-23 3.96-5.5 10.69-13.83 14.94-18.5 4.25-4.67 17.67-18.85 29.82-31.5 12.15-12.65 27.94-29.05 35.09-36.44 7.15-7.39 14.58-15.06 16.5-17.05 1.92-1.99 8-8.33 13.5-14.07 5.5-5.75 16.3-17 24-25.01 7.7-8 18.5-19.26 24-25.01 5.5-5.75 20.57-21.48 33.49-34.94 12.93-13.46 28-29.17 33.5-34.89 5.51-5.73 12.71-13.23 16.01-16.67 3.3-3.44 8.65-9.1 11.9-12.59 3.24-3.48 13.81-14.65 23.5-24.81 9.68-10.17 24.18-25.25 32.21-33.5 8.04-8.26 17.72-18.24 21.5-22.17 3.79-3.94 10.72-11.14 15.39-16.01 4.67-4.87 14.24-14.82 21.25-22.1 7.01-7.28 13.2-13.24 13.75-13.24 0.55 0 11.65 10.46 24.67 23.25 13.02 12.79 24.99 24.6 26.61 26.25 2.44 2.49 3.09 2.74 3.81 1.5 0.49-0.83 0.89-2.74 0.89-4.25 0.01-1.51 1.78-14.34 3.93-28.5 2.15-14.16 4.39-29.35 4.99-33.75 0.59-4.4 1.77-12.5 2.62-18 0.85-5.5 1.73-11.12 1.95-12.5 0.22-1.37 1.57-10.83 3.01-21 1.44-10.17 3.26-22.77 4.04-28 0.79-5.22 4.37-29.75 7.96-54.5 3.6-24.75 6.87-47.62 7.28-50.82 0.41-3.21 0.46-5.93 0.11-6.06-0.34-0.13-4.17 0.36-8.5 1.09z"></path>
		<path id="Path 11" class="s2" d="m314.06 721.25c0.04 158.27 0.4 246.71 1.02 245.75 0.52-0.83 4.68-8.03 9.23-16 4.55-7.97 11.01-18.55 14.36-23.5 3.35-4.95 8.73-12.4 11.96-16.56 3.23-4.16 9.02-11.12 12.87-15.47 3.85-4.34 10.8-11.96 15.45-16.93 4.64-4.97 13.64-14.44 20-21.04 6.35-6.6 18.75-19.64 27.55-28.98 8.8-9.34 29.95-31.4 47-49.01 17.05-17.62 39.43-40.8 49.73-51.52l18.73-19.49 0.04-234.5h-228z"></path>
		<path id="Path 12" class="s1" d="m551.43 382.5c0 12.1 0.14 16.83 0.32 10.5 0.17-6.33 0.17-16.23 0-22-0.18-5.77-0.32-0.6-0.32 11.5z"></path>
		<path id="Path 13" class="s1" d="m947.46 370c0 26.67 0.13 37.48 0.29 24 0.16-13.48 0.16-35.3 0-48.5-0.16-13.2-0.29-2.17-0.29 24.5z"></path>
		<path id="Path 14" class="s1" d="m947.37 307.5c0 5.5 0.17 7.52 0.37 4.5 0.2-3.02 0.2-7.52-0.01-10-0.2-2.48-0.37 0-0.36 5.5z"></path>
		<path id="Path 15" class="s1" d="m947.41 280.5c0 9.35 0.15 13.4 0.33 9 0.19-4.4 0.19-12.05 0.01-17-0.19-4.95-0.34-1.35-0.34 8z"></path>
		<path id="Path 16" class="s2" d="m947.34 261.25c0.31 2.34 0.58 45.31 0.61 95.5l0.05 91.25c166.83 0 201-0.34 201-1 0-0.55-2.82-7.19-6.27-14.75-3.45-7.56-9.35-19.15-13.12-25.75-3.76-6.6-9.33-15.83-12.37-20.5-3.03-4.67-7.36-10.98-9.62-14-2.25-3.02-7.24-9.33-11.09-14-3.84-4.67-11.27-12.95-16.51-18.4-5.23-5.44-14.02-13.77-19.52-18.5-5.5-4.73-14.84-12.2-20.75-16.6-5.91-4.4-15.58-11.04-21.5-14.75-5.91-3.71-17.28-10.08-25.25-14.15-7.97-4.07-20.91-9.92-28.75-13-7.84-3.08-14.97-5.6-15.86-5.6-1.3 0-1.5 0.79-1.05 4.25z"></path>
		<path id="Path 17" class="s2" d="m551.54 298.23c0.12 34.8 0.28 82.73 0.34 106.52l0.12 43.25h340v-206c-3.49-0.73-9.22-1.64-15-2.5-5.78-0.86-17.7-2.17-26.5-2.92-12.45-1.06-47.43-1.39-157.59-1.49l-141.59-0.12z"></path>
		<path id="Path 18" class="s2" d="m314 326.5v91.5h183v-183h-183z"></path>
	</g>
</svg></svg></g></g><defs><clipPath id="SvgjsClipPath1038"><rect width="1000" height="1000" x="0" y="0" rx="500" ry="500"></rect></clipPath></defs></svg></g><g id="dark-icon"><svg xmlns="http://www.w3.org/2000/svg" version="1.1" xmlns:xlink="http://www.w3.org/1999/xlink" width="1000" height="1000"><g clip-path="url(#SvgjsClipPath1039)"><rect width="1000" height="1000" fill="#ffffff"></rect><g transform="matrix(0.6024096385542169,0,0,0.6024096385542169,49.99999999999994,49.99999999999994)"><svg xmlns="http://www.w3.org/2000/svg" version="1.1" xmlns:xlink="http://www.w3.org/1999/xlink" width="1494" height="1494"><svg version="1.2" xmlns="http://www.w3.org/2000/svg" viewBox="0 0 1494 1494" width="1494" height="1494">
	<style>
		.s0 { fill: #fbfcfa } 
		.s1 { fill: #06aa77 } 
		.s2 { fill: #203c8c } 
	</style>
	<g id="Background">
		<path id="Path 0" class="s0" d="m-277 747v1024h2048v-2048h-2048z"></path>
		<path id="Path 1" class="s1" d="m527.42 1053.25c-7.17 7.29-18.39 18.88-24.92 25.75-6.53 6.88-15.99 17.67-21.03 24-5.04 6.33-10.97 14.2-13.18 17.5-2.2 3.3-7.07 11.4-10.8 18-3.74 6.6-8.33 15.38-10.2 19.5-1.88 4.13-5.36 12.9-7.75 19.5-2.39 6.6-5.51 16.72-6.94 22.5-1.42 5.78-3.5 16.58-4.61 24-1.11 7.42-2.35 18.34-2.75 24.26l-0.74 10.75 117.5-0.01c0-169.72-0.34-219-0.76-219-0.42 0-6.64 5.96-13.82 13.25z"></path>
		<path id="Path 2" class="s2" d="m795.51 774.25c-0.87 1.24-7.74 8.55-15.26 16.25-7.52 7.7-19.99 20.53-27.71 28.52-7.72 7.98-19.66 20.38-26.54 27.56-6.87 7.17-16.74 17.51-21.93 22.98-5.19 5.47-14.64 15.34-21 21.94-6.36 6.6-17.19 17.87-24.07 25.05-6.87 7.18-17.42 18.21-23.43 24.5-6.02 6.3-15.69 16.41-21.5 22.47-5.82 6.06-12.59 13.17-15.07 15.8l-4.5 4.78c199.95-0.62 260.25-1.1 263-1.47 2.75-0.37 10.63-1.35 17.5-2.18 6.88-0.83 13.51-1.72 14.75-1.98l2.25-0.47v-206h-94.9z"></path>
		<path id="Path 3" class="s1" d="m1125 771.73c2.47 0.21 6.08 0.21 8 0 1.92-0.22-0.1-0.39-4.5-0.39-4.4 0.01-5.97 0.18-3.5 0.39z"></path>
		<path id="Path 4" class="s1" d="m1039 771.75c14.03 0.16 37.2 0.16 51.5 0 14.3-0.16 2.83-0.29-25.5-0.29-28.33 0-40.03 0.13-26 0.29z"></path>
		<path id="Path 5" class="s1" d="m971 771.74c4.67 0.19 12.78 0.19 18 0.01 5.22-0.19 1.4-0.34-8.5-0.34-9.9 0-14.17 0.15-9.5 0.33z"></path>
		<path id="Path 6" class="s2" d="m953.25 771.75l-6.25 0.25c0 185.79 0.1 191 1.75 191 0.96 0 6.25-1.73 11.75-3.85 5.5-2.11 12.92-5.09 16.5-6.61 3.58-1.52 9.65-4.35 13.5-6.27 3.85-1.92 11.95-6.46 18-10.07 6.05-3.62 15.95-9.93 22-14.03 6.05-4.11 15.27-10.88 20.5-15.07 5.22-4.18 14.92-13 21.55-19.6 6.63-6.6 16.46-17.17 21.85-23.5 5.39-6.33 13.29-16.45 17.56-22.5 4.26-6.05 11.05-16.63 15.08-23.5 4.03-6.87 9.92-17.9 13.09-24.5 3.17-6.6 6.46-14.03 7.31-16.5 0.86-2.47 1.44-4.61 1.31-4.74-0.14-0.13-42.78-0.36-94.75-0.5-51.97-0.14-97.31-0.15-100.75-0.01z"></path>
		<path id="Path 7" class="s1" d="m860 771.74c4.67 0.19 12.55 0.19 17.5 0 4.95-0.18 1.13-0.33-8.5-0.33-9.63 0-13.67 0.15-9 0.33z"></path>
		<path id="Path 8" class="s2" d="m952.25 610.09l0.25 106.1c166.63-0.24 215.11-0.39 215.25-0.5 0.14-0.1 1.15-4.24 2.26-9.19 1.1-4.95 3.11-16.42 4.46-25.5 1.35-9.08 3.2-25.05 4.11-35.5 1.24-14.21 1.52-25.31 1.13-44-0.29-13.75-1.26-31.75-2.16-40-0.9-8.25-2.53-20.4-3.63-27-1.1-6.6-2.67-15.38-3.5-19.5-0.82-4.13-1.7-8.29-1.96-9.25-0.43-1.65-6.45-1.75-108.46-1.75h-108.01z"></path>
		<path id="Path 9" class="s1" d="m1154.5 503.75q13 0.34 13.83 1.55 0.85 1.26 0.41-0.3c-0.33-1.24-2.77-1.51-13.82-1.55l-13.42-0.05z"></path>
		<path id="Path 10" class="s1" d="m909.37 482.71c-4.33 0.73-20.25 3.59-35.37 6.35-15.13 2.77-34.7 6.34-43.5 7.94-8.8 1.6-22.3 4.05-30 5.46-7.7 1.4-34.47 6.13-59.5 10.5-25.02 4.37-52.7 9.33-61.5 11.02-8.8 1.69-16.23 3.33-16.5 3.65-0.27 0.32 11.87 12.71 27 27.52l27.5 26.93c-22.53 22.8-40.33 41.12-54.09 55.42-13.77 14.3-28.61 29.78-32.97 34.41-4.37 4.62-10.19 10.73-12.94 13.58-2.75 2.84-8.83 9.18-13.5 14.09-4.68 4.9-19.55 20.4-33.05 34.42-13.5 14.03-28.57 29.77-33.5 34.98-4.92 5.21-15.93 16.68-24.45 25.49-8.52 8.81-21.14 21.87-28.03 29.02-6.89 7.16-17.05 17.73-22.57 23.51-5.52 5.78-16.13 16.8-23.57 24.5-7.44 7.7-18.45 19.17-24.47 25.5-6.03 6.33-13.44 14.2-16.47 17.5-3.04 3.3-8.21 9.38-11.49 13.5-3.29 4.13-8.25 10.65-11.04 14.5-2.78 3.85-7.02 9.92-9.41 13.5-2.39 3.58-6.56 10.33-9.26 15-2.71 4.67-7.75 14.35-11.2 21.5-3.46 7.15-8.54 19.08-11.28 26.5-2.75 7.42-6.45 18.9-8.21 25.5-1.77 6.6-3.85 14.92-4.63 18.5-0.77 3.58-1.86 8.75-2.42 11.5-0.56 2.75-1.75 9.5-2.65 15-1.4 8.53-1.69 21.71-1.97 89.75l-0.33 79.75 72.5-0.5c0.35-6.97 0.94-15.08 1.54-22.5 0.6-7.42 1.71-17.1 2.46-21.5 0.75-4.4 2.3-12.28 3.44-17.5 1.14-5.22 4.14-15.8 6.69-23.5 2.54-7.7 5.91-17.26 7.49-21.25 1.59-3.99 5.42-12.31 8.51-18.5 3.1-6.19 9.28-17.1 13.72-24.25 4.45-7.15 11.33-17.5 15.3-23 3.96-5.5 10.69-13.83 14.94-18.5 4.25-4.67 17.67-18.85 29.82-31.5 12.15-12.65 27.94-29.05 35.09-36.44 7.15-7.39 14.58-15.06 16.5-17.05 1.92-1.99 8-8.33 13.5-14.07 5.5-5.75 16.3-17 24-25.01 7.7-8 18.5-19.26 24-25.01 5.5-5.75 20.57-21.48 33.49-34.94 12.93-13.46 28-29.17 33.5-34.89 5.51-5.73 12.71-13.23 16.01-16.67 3.3-3.44 8.65-9.1 11.9-12.59 3.24-3.48 13.81-14.65 23.5-24.81 9.68-10.17 24.18-25.25 32.21-33.5 8.04-8.26 17.72-18.24 21.5-22.17 3.79-3.94 10.72-11.14 15.39-16.01 4.67-4.87 14.24-14.82 21.25-22.1 7.01-7.28 13.2-13.24 13.75-13.24 0.55 0 11.65 10.46 24.67 23.25 13.02 12.79 24.99 24.6 26.61 26.25 2.44 2.49 3.09 2.74 3.81 1.5 0.49-0.83 0.89-2.74 0.89-4.25 0.01-1.51 1.78-14.34 3.93-28.5 2.15-14.16 4.39-29.35 4.99-33.75 0.59-4.4 1.77-12.5 2.62-18 0.85-5.5 1.73-11.12 1.95-12.5 0.22-1.37 1.57-10.83 3.01-21 1.44-10.17 3.26-22.77 4.04-28 0.79-5.22 4.37-29.75 7.96-54.5 3.6-24.75 6.87-47.62 7.28-50.82 0.41-3.21 0.46-5.93 0.11-6.06-0.34-0.13-4.17 0.36-8.5 1.09z"></path>
		<path id="Path 11" class="s2" d="m314.06 721.25c0.04 158.27 0.4 246.71 1.02 245.75 0.52-0.83 4.68-8.03 9.23-16 4.55-7.97 11.01-18.55 14.36-23.5 3.35-4.95 8.73-12.4 11.96-16.56 3.23-4.16 9.02-11.12 12.87-15.47 3.85-4.34 10.8-11.96 15.45-16.93 4.64-4.97 13.64-14.44 20-21.04 6.35-6.6 18.75-19.64 27.55-28.98 8.8-9.34 29.95-31.4 47-49.01 17.05-17.62 39.43-40.8 49.73-51.52l18.73-19.49 0.04-234.5h-228z"></path>
		<path id="Path 12" class="s1" d="m551.43 382.5c0 12.1 0.14 16.83 0.32 10.5 0.17-6.33 0.17-16.23 0-22-0.18-5.77-0.32-0.6-0.32 11.5z"></path>
		<path id="Path 13" class="s1" d="m947.46 370c0 26.67 0.13 37.48 0.29 24 0.16-13.48 0.16-35.3 0-48.5-0.16-13.2-0.29-2.17-0.29 24.5z"></path>
		<path id="Path 14" class="s1" d="m947.37 307.5c0 5.5 0.17 7.52 0.37 4.5 0.2-3.02 0.2-7.52-0.01-10-0.2-2.48-0.37 0-0.36 5.5z"></path>
		<path id="Path 15" class="s1" d="m947.41 280.5c0 9.35 0.15 13.4 0.33 9 0.19-4.4 0.19-12.05 0.01-17-0.19-4.95-0.34-1.35-0.34 8z"></path>
		<path id="Path 16" class="s2" d="m947.34 261.25c0.31 2.34 0.58 45.31 0.61 95.5l0.05 91.25c166.83 0 201-0.34 201-1 0-0.55-2.82-7.19-6.27-14.75-3.45-7.56-9.35-19.15-13.12-25.75-3.76-6.6-9.33-15.83-12.37-20.5-3.03-4.67-7.36-10.98-9.62-14-2.25-3.02-7.24-9.33-11.09-14-3.84-4.67-11.27-12.95-16.51-18.4-5.23-5.44-14.02-13.77-19.52-18.5-5.5-4.73-14.84-12.2-20.75-16.6-5.91-4.4-15.58-11.04-21.5-14.75-5.91-3.71-17.28-10.08-25.25-14.15-7.97-4.07-20.91-9.92-28.75-13-7.84-3.08-14.97-5.6-15.86-5.6-1.3 0-1.5 0.79-1.05 4.25z"></path>
		<path id="Path 17" class="s2" d="m551.54 298.23c0.12 34.8 0.28 82.73 0.34 106.52l0.12 43.25h340v-206c-3.49-0.73-9.22-1.64-15-2.5-5.78-0.86-17.7-2.17-26.5-2.92-12.45-1.06-47.43-1.39-157.59-1.49l-141.59-0.12z"></path>
		<path id="Path 18" class="s2" d="m314 326.5v91.5h183v-183h-183z"></path>
	</g>
</svg></svg></g></g><defs><clipPath id="SvgjsClipPath1039"><rect width="1000" height="1000" x="0" y="0" rx="500" ry="500"></rect></clipPath></defs></svg></g></svg>